<svg width="147" height="17" viewBox="0 0 147 17" fill="none" xmlns="http://www.w3.org/2000/svg">
<path d="M9.983 16H11.894V1.363H9.983V7.789H2.528V1.363H0.617V16H2.528V9.364H9.983V16ZM20.0295 5.92C22.0035 5.92 23.6835 7.159 23.6625 9.406H16.3965C16.6065 7.159 18.1605 5.92 20.0295 5.92ZM25.4055 12.451H23.3475C22.9275 13.69 21.8355 14.572 20.1135 14.572C18.1605 14.572 16.5225 13.291 16.3755 10.96H25.5735C25.6155 10.561 25.6365 10.225 25.6365 9.805C25.6365 6.655 23.4525 4.303 20.1135 4.303C16.7535 4.303 14.4225 6.592 14.4225 10.225C14.4225 13.879 16.8375 16.189 20.1135 16.189C22.9695 16.189 24.8175 14.551 25.4055 12.451ZM28.159 16H30.07V0.46H28.159V16ZM33.327 16H35.238V0.46H33.327V16ZM49.4149 10.225C49.4149 6.592 46.8739 4.303 43.5979 4.303C40.3429 4.303 37.7809 6.592 37.7809 10.225C37.7809 13.879 40.2589 16.189 43.5139 16.189C46.7899 16.189 49.4149 13.879 49.4149 10.225ZM39.7339 10.225C39.7339 7.327 41.5609 5.962 43.5769 5.962C45.5509 5.962 47.4619 7.327 47.4619 10.225C47.4619 13.144 45.5089 14.509 43.5139 14.509C41.5189 14.509 39.7339 13.144 39.7339 10.225ZM67.9212 11.611C67.9212 6.676 60.6342 7.831 60.6342 5.269C60.6342 4.345 61.2852 3.904 62.1462 3.925C63.1122 3.946 63.7842 4.513 63.8472 5.458H67.7322C67.5852 2.644 65.4222 1.048 62.2092 1.048C59.1222 1.048 56.8332 2.602 56.8332 5.395C56.7912 10.624 64.1622 9.154 64.1622 11.884C64.1622 12.745 63.4902 13.27 62.4402 13.27C61.4322 13.27 60.7182 12.724 60.6132 11.59H56.7912C56.8962 14.572 59.3742 16.147 62.5452 16.147C65.9892 16.147 67.9212 14.089 67.9212 11.611ZM70.6981 11.926C70.6981 14.971 72.3991 16 74.8351 16H76.6621V12.955H75.3811C74.5831 12.955 74.2891 12.661 74.2891 11.968V7.264H76.6411V4.282H74.2891V1.426H70.6981V4.282H69.2701V7.264H70.6981V11.926ZM90.2334 4.282H86.6424V10.645C86.6424 12.241 85.7604 13.123 84.3744 13.123C83.0304 13.123 82.1274 12.241 82.1274 10.645V4.282H78.5574V11.128C78.5574 14.257 80.3844 16.126 83.0934 16.126C84.6684 16.126 85.9284 15.412 86.6424 14.404V16H90.2334V4.282ZM92.0987 10.12C92.0987 13.816 94.3877 16.168 97.2647 16.168C98.9867 16.168 100.226 15.391 100.877 14.32V16H104.468V0.46H100.877V5.899C100.163 4.828 98.8187 4.114 97.2647 4.114C94.3877 4.114 92.0987 6.424 92.0987 10.12ZM100.877 10.141C100.877 12.01 99.6797 13.039 98.3147 13.039C96.9707 13.039 95.7527 11.989 95.7527 10.12C95.7527 8.251 96.9707 7.243 98.3147 7.243C99.6797 7.243 100.877 8.272 100.877 10.141ZM112.232 6.991C113.429 6.991 114.437 7.726 114.437 9.007H109.943C110.153 7.705 111.056 6.991 112.232 6.991ZM117.839 12.115H114.017C113.723 12.745 113.156 13.249 112.148 13.249C110.993 13.249 110.048 12.535 109.922 11.002H118.049C118.091 10.645 118.112 10.288 118.112 9.952C118.112 6.382 115.697 4.114 112.274 4.114C108.788 4.114 106.352 6.424 106.352 10.141C106.352 13.858 108.83 16.168 112.274 16.168C115.193 16.168 117.272 14.404 117.839 12.115ZM128.091 16H131.661V9.154C131.661 6.004 129.855 4.156 127.146 4.156C125.571 4.156 124.311 4.849 123.597 5.836V4.282H120.006V16H123.597V9.637C123.597 8.041 124.479 7.159 125.844 7.159C127.209 7.159 128.091 8.041 128.091 9.637V16ZM134.723 11.926C134.723 14.971 136.424 16 138.86 16H140.687V12.955H139.406C138.608 12.955 138.314 12.661 138.314 11.968V7.264H140.666V4.282H138.314V1.426H134.723V4.282H133.295V7.264H134.723V11.926Z" fill="#200E64"/>
<path d="M146.489 14.236C146.489 13.123 145.628 12.262 144.368 12.262C143.087 12.262 142.226 13.123 142.226 14.236C142.226 15.307 143.087 16.168 144.368 16.168C145.628 16.168 146.489 15.307 146.489 14.236Z" fill="#FFD74F"/>
</svg>
